<?xml version="1.0" encoding="UTF-8" standalone="no"?>
<svg
   width="111"
   height="108.28"
   version="1.1"
   id="svg2"
   sodipodi:docname="logo-bonus.svg"
   inkscape:version="1.3.1 (91b66b0783, 2023-11-16)"
   xmlns:inkscape="http://www.inkscape.org/namespaces/inkscape"
   xmlns:sodipodi="http://sodipodi.sourceforge.net/DTD/sodipodi-0.dtd"
   xmlns:xlink="http://www.w3.org/1999/xlink"
   xmlns="http://www.w3.org/2000/svg"
   xmlns:svg="http://www.w3.org/2000/svg">
  <sodipodi:namedview
     id="namedview2"
     pagecolor="#505050"
     bordercolor="#eeeeee"
     borderopacity="1"
     inkscape:showpageshadow="0"
     inkscape:pageopacity="0"
     inkscape:pagecheckerboard="0"
     inkscape:deskcolor="#505050"
     inkscape:zoom="5.0924094"
     inkscape:cx="46.834412"
     inkscape:cy="49.387231"
     inkscape:window-width="1920"
     inkscape:window-height="1017"
     inkscape:window-x="1912"
     inkscape:window-y="-8"
     inkscape:window-maximized="1"
     inkscape:current-layer="svg2" />
  <defs
     id="defs1">
    <filter
       id="a"
       width="1.0661545"
       height="1.094378"
       x="-0.033077275"
       y="-0.033309893"
       filterUnits="objectBoundingBox">
      <feOffset
         dy="3"
         in="SourceAlpha"
         result="shadowOffsetOuter1"
         id="feOffset1" />
      <feGaussianBlur
         in="shadowOffsetOuter1"
         result="shadowBlurOuter1"
         stdDeviation="1.5"
         id="feGaussianBlur1" />
      <feColorMatrix
         in="shadowBlurOuter1"
         values="0 0 0 0 0 0 0 0 0 0 0 0 0 0 0 0 0 0 0.196705638 0"
         id="feColorMatrix1" />
    </filter>
    <path
       id="b"
       d="m 37.096,42 a 0.324,0.324 0 0 0 0.238,-0.098 0.324,0.324 0 0 0 0.098,-0.238 V 34.02 c 0,-0.093 0.047,-0.14 0.14,-0.14 h 1.764 c 0.056,0 0.103,0.037 0.14,0.112 l 2.828,7.728 C 42.36,41.907 42.491,42 42.696,42 h 3.416 c 0.205,0 0.308,-0.084 0.308,-0.252 a 0.312,0.312 0 0 0 -0.028,-0.14 L 43.2,33.572 c -0.037,-0.093 -0.01,-0.159 0.084,-0.196 a 4.812,4.812 0 0 0 2.212,-1.96 c 0.523,-0.877 0.784,-1.913 0.784,-3.108 0,-1.157 -0.233,-2.184 -0.7,-3.08 A 5.042,5.042 0 0 0 43.592,23.142 C 42.733,22.647 41.753,22.4 40.652,22.4 H 33.82 a 0.324,0.324 0 0 0 -0.238,0.098 0.324,0.324 0 0 0 -0.098,0.238 v 18.928 c 0,0.093 0.033,0.173 0.098,0.238 A 0.324,0.324 0 0 0 33.82,42 Z m 2.912,-11.144 h -2.436 c -0.093,0 -0.14,-0.047 -0.14,-0.14 v -4.788 c 0,-0.093 0.047,-0.14 0.14,-0.14 h 2.436 c 0.69,0 1.25,0.229 1.68,0.686 0.43,0.457 0.644,1.078 0.644,1.862 0,0.765 -0.215,1.377 -0.644,1.834 -0.43,0.457 -0.99,0.686 -1.68,0.686 z m 14.84,11.396 c 1.288,0 2.427,-0.261 3.416,-0.784 a 5.58,5.58 0 0 0 2.296,-2.212 c 0.541,-0.952 0.812,-2.063 0.812,-3.332 v -7.448 c 0,-1.25 -0.27,-2.352 -0.812,-3.304 A 5.58,5.58 0 0 0 58.264,22.96 c -0.99,-0.523 -2.128,-0.784 -3.416,-0.784 -1.288,0 -2.422,0.261 -3.402,0.784 a 5.602,5.602 0 0 0 -2.282,2.212 c -0.541,0.952 -0.812,2.053 -0.812,3.304 v 7.448 c 0,1.27 0.27,2.38 0.812,3.332 a 5.602,5.602 0 0 0 2.282,2.212 c 0.98,0.523 2.114,0.784 3.402,0.784 z m 0,-3.388 c -0.765,0 -1.381,-0.257 -1.848,-0.77 -0.467,-0.513 -0.7,-1.18 -0.7,-2.002 v -7.728 c 0,-0.84 0.233,-1.517 0.7,-2.03 0.467,-0.513 1.083,-0.77 1.848,-0.77 0.784,0 1.41,0.257 1.876,0.77 0.467,0.513 0.7,1.19 0.7,2.03 v 7.728 c 0,0.821 -0.233,1.489 -0.7,2.002 -0.467,0.513 -1.092,0.77 -1.876,0.77 z m 15.232,3.36 c 1.27,0 2.39,-0.247 3.36,-0.742 a 5.362,5.362 0 0 0 2.254,-2.114 c 0.532,-0.915 0.798,-1.97 0.798,-3.164 V 36.12 a 0.324,0.324 0 0 0 -0.098,-0.238 0.324,0.324 0 0 0 -0.238,-0.098 l -3.276,-0.14 c -0.224,0 -0.336,0.103 -0.336,0.308 v 0.364 c 0,0.765 -0.224,1.377 -0.672,1.834 -0.448,0.457 -1.045,0.686 -1.792,0.686 -0.747,0 -1.344,-0.229 -1.792,-0.686 -0.448,-0.457 -0.672,-1.069 -0.672,-1.834 v -8.204 c 0,-0.765 0.224,-1.381 0.672,-1.848 0.448,-0.467 1.045,-0.7 1.792,-0.7 0.747,0 1.344,0.233 1.792,0.7 0.448,0.467 0.672,1.083 0.672,1.848 v 0.364 c 0,0.205 0.112,0.308 0.336,0.308 l 3.276,-0.14 a 0.305,0.305 0 0 0 0.238,-0.112 0.373,0.373 0 0 0 0.098,-0.252 v -0.14 c 0,-1.195 -0.266,-2.24 -0.798,-3.136 -0.532,-0.896 -1.283,-1.591 -2.254,-2.086 -0.97,-0.495 -2.09,-0.742 -3.36,-0.742 -1.27,0 -2.39,0.252 -3.36,0.756 a 5.426,5.426 0 0 0 -2.254,2.142 c -0.532,0.924 -0.798,1.993 -0.798,3.206 v 7.784 c 0,1.232 0.266,2.315 0.798,3.248 a 5.401,5.401 0 0 0 2.254,2.156 c 0.97,0.504 2.09,0.756 3.36,0.756 z M 82.624,42 a 0.324,0.324 0 0 0 0.238,-0.098 0.324,0.324 0 0 0 0.098,-0.238 v -5.6 a 0.43,0.43 0 0 1 0.056,-0.168 l 1.26,-1.82 c 0.037,-0.056 0.075,-0.084 0.112,-0.084 0.037,0 0.065,0.028 0.084,0.084 l 3.976,7.672 C 88.541,41.916 88.672,42 88.84,42 h 3.584 c 0.205,0 0.308,-0.075 0.308,-0.224 A 0.43,0.43 0 0 0 92.676,41.608 L 87.188,31.024 a 0.348,0.348 0 0 1 0,-0.196 l 5.18,-8.036 C 92.443,22.68 92.457,22.587 92.41,22.512 92.363,22.437 92.275,22.4 92.144,22.4 h -3.612 a 0.439,0.439 0 0 0 -0.392,0.224 l -5.012,7.616 c -0.019,0.056 -0.051,0.075 -0.098,0.056 -0.047,-0.019 -0.07,-0.056 -0.07,-0.112 V 22.736 A 0.324,0.324 0 0 0 82.862,22.498 0.324,0.324 0 0 0 82.624,22.4 h -3.276 a 0.324,0.324 0 0 0 -0.238,0.098 0.324,0.324 0 0 0 -0.098,0.238 v 18.928 c 0,0.093 0.033,0.173 0.098,0.238 A 0.324,0.324 0 0 0 79.348,42 Z M 37.012,64 a 0.324,0.324 0 0 0 0.238,-0.098 0.324,0.324 0 0 0 0.098,-0.238 v -7.28 c 0,-0.093 0.047,-0.14 0.14,-0.14 h 3.024 c 1.12,0 2.114,-0.243 2.982,-0.728 a 5.038,5.038 0 0 0 2.016,-2.058 c 0.476,-0.887 0.714,-1.909 0.714,-3.066 0,-1.176 -0.238,-2.221 -0.714,-3.136 A 5.158,5.158 0 0 0 43.494,45.128 C 42.626,44.624 41.632,44.372 40.512,44.372 H 33.736 A 0.324,0.324 0 0 0 33.498,44.47 0.324,0.324 0 0 0 33.4,44.708 v 18.956 c 0,0.093 0.033,0.173 0.098,0.238 A 0.324,0.324 0 0 0 33.736,64 Z m 2.856,-10.892 h -2.38 c -0.093,0 -0.14,-0.047 -0.14,-0.14 v -5.04 c 0,-0.093 0.047,-0.14 0.14,-0.14 h 2.38 c 0.728,0 1.311,0.243 1.75,0.728 0.439,0.485 0.658,1.139 0.658,1.96 0,0.803 -0.22,1.442 -0.658,1.918 -0.439,0.476 -1.022,0.714 -1.75,0.714 z M 51.152,64 c 0.187,0 0.308,-0.093 0.364,-0.28 l 0.644,-2.744 c 0.019,-0.075 0.065,-0.112 0.14,-0.112 h 5.236 c 0.075,0 0.121,0.037 0.14,0.112 l 0.644,2.744 c 0.056,0.187 0.187,0.28 0.392,0.28 h 3.416 c 0.205,0 0.308,-0.084 0.308,-0.252 L 62.408,63.636 57.368,44.68 C 57.312,44.493 57.181,44.4 56.976,44.4 h -4.06 c -0.205,0 -0.336,0.093 -0.392,0.28 l -5.04,18.956 C 47.428,63.879 47.521,64 47.764,64 Z m 5.6,-6.188 H 53.056 A 0.186,0.186 0 0 1 52.944,57.77 C 52.907,57.742 52.897,57.7 52.916,57.644 l 1.876,-8.12 c 0.019,-0.075 0.047,-0.112 0.084,-0.112 0.037,0 0.065,0.037 0.084,0.112 l 1.932,8.12 c 0.019,0.056 0.01,0.098 -0.028,0.126 a 0.186,0.186 0 0 1 -0.112,0.042 z M 68.036,64 a 0.324,0.324 0 0 0 0.238,-0.098 0.324,0.324 0 0 0 0.098,-0.238 v -7.28 c 0,-0.093 0.047,-0.14 0.14,-0.14 h 3.024 c 1.12,0 2.114,-0.243 2.982,-0.728 a 5.038,5.038 0 0 0 2.016,-2.058 c 0.476,-0.887 0.714,-1.909 0.714,-3.066 0,-1.176 -0.238,-2.221 -0.714,-3.136 A 5.158,5.158 0 0 0 74.518,45.128 C 73.65,44.624 72.656,44.372 71.536,44.372 H 64.76 a 0.324,0.324 0 0 0 -0.238,0.098 0.324,0.324 0 0 0 -0.098,0.238 v 18.956 c 0,0.093 0.033,0.173 0.098,0.238 A 0.324,0.324 0 0 0 64.76,64 Z m 2.856,-10.892 h -2.38 c -0.093,0 -0.14,-0.047 -0.14,-0.14 v -5.04 c 0,-0.093 0.047,-0.14 0.14,-0.14 h 2.38 c 0.728,0 1.311,0.243 1.75,0.728 0.439,0.485 0.658,1.139 0.658,1.96 0,0.803 -0.22,1.442 -0.658,1.918 -0.439,0.476 -1.022,0.714 -1.75,0.714 z M 90.968,64 a 0.324,0.324 0 0 0 0.238,-0.098 0.324,0.324 0 0 0 0.098,-0.238 V 60.948 A 0.324,0.324 0 0 0 91.206,60.71 0.324,0.324 0 0 0 90.968,60.612 h -7.504 c -0.093,0 -0.14,-0.047 -0.14,-0.14 v -4.508 c 0,-0.093 0.047,-0.14 0.14,-0.14 h 4.676 a 0.324,0.324 0 0 0 0.238,-0.098 0.324,0.324 0 0 0 0.098,-0.238 V 52.772 A 0.324,0.324 0 0 0 88.378,52.534 0.324,0.324 0 0 0 88.14,52.436 h -4.676 c -0.093,0 -0.14,-0.047 -0.14,-0.14 v -4.368 c 0,-0.093 0.047,-0.14 0.14,-0.14 h 7.504 a 0.324,0.324 0 0 0 0.238,-0.098 0.324,0.324 0 0 0 0.098,-0.238 V 44.736 A 0.324,0.324 0 0 0 91.206,44.498 0.324,0.324 0 0 0 90.968,44.4 H 79.712 a 0.324,0.324 0 0 0 -0.238,0.098 0.324,0.324 0 0 0 -0.098,0.238 v 18.928 c 0,0.093 0.033,0.173 0.098,0.238 A 0.324,0.324 0 0 0 79.712,64 Z m 6.328,0 a 0.324,0.324 0 0 0 0.238,-0.098 0.324,0.324 0 0 0 0.098,-0.238 V 56.02 c 0,-0.093 0.047,-0.14 0.14,-0.14 h 1.764 c 0.056,0 0.103,0.037 0.14,0.112 l 2.828,7.728 c 0.056,0.187 0.187,0.28 0.392,0.28 h 3.416 c 0.205,0 0.308,-0.084 0.308,-0.252 a 0.312,0.312 0 0 0 -0.028,-0.14 L 103.4,55.572 c -0.037,-0.093 -0.01,-0.159 0.084,-0.196 a 4.812,4.812 0 0 0 2.212,-1.96 c 0.523,-0.877 0.784,-1.913 0.784,-3.108 0,-1.157 -0.233,-2.184 -0.7,-3.08 a 5.042,5.042 0 0 0 -1.988,-2.086 C 102.933,44.647 101.953,44.4 100.852,44.4 H 94.02 a 0.324,0.324 0 0 0 -0.238,0.098 0.324,0.324 0 0 0 -0.098,0.238 v 18.928 c 0,0.093 0.033,0.173 0.098,0.238 A 0.324,0.324 0 0 0 94.02,64 Z m 2.912,-11.144 h -2.436 c -0.093,0 -0.14,-0.047 -0.14,-0.14 v -4.788 c 0,-0.093 0.047,-0.14 0.14,-0.14 h 2.436 c 0.69,0 1.25,0.229 1.68,0.686 0.43,0.457 0.644,1.078 0.644,1.862 0,0.765 -0.215,1.377 -0.644,1.834 -0.43,0.457 -0.99,0.686 -1.68,0.686 z M 39.364,86.224 c 1.904,0 3.43,-0.5 4.578,-1.498 1.148,-0.999 1.722,-2.347 1.722,-4.046 0,-0.952 -0.205,-1.764 -0.616,-2.436 A 5.687,5.687 0 0 0 43.522,76.578 C 42.915,76.139 42.071,75.621 40.988,75.024 L 40.4,74.688 c -0.952,-0.467 -1.661,-0.845 -2.128,-1.134 -0.467,-0.29 -0.812,-0.593 -1.036,-0.91 A 1.892,1.892 0 0 1 36.9,71.524 c 0,-0.616 0.191,-1.097 0.574,-1.442 0.383,-0.345 0.91,-0.518 1.582,-0.518 0.803,0 1.437,0.224 1.904,0.672 0.467,0.448 0.7,1.008 0.7,1.68 v 0.504 c 0,0.093 0.033,0.173 0.098,0.238 a 0.324,0.324 0 0 0 0.238,0.098 h 3.22 a 0.324,0.324 0 0 0 0.238,-0.098 0.324,0.324 0 0 0 0.098,-0.238 v -0.56 c 0,-1.12 -0.27,-2.11 -0.812,-2.968 -0.541,-0.859 -1.297,-1.526 -2.268,-2.002 -0.97,-0.476 -2.081,-0.714 -3.332,-0.714 -1.195,0 -2.259,0.22 -3.192,0.658 -0.933,0.439 -1.657,1.064 -2.17,1.876 -0.513,0.812 -0.77,1.76 -0.77,2.842 0,1.083 0.252,2.007 0.756,2.772 a 6.714,6.714 0 0 0 1.82,1.876 c 0.71,0.485 1.624,1.008 2.744,1.568 0.915,0.467 1.591,0.835 2.03,1.106 0.439,0.27 0.78,0.56 1.022,0.868 0.243,0.308 0.364,0.677 0.364,1.106 0,0.579 -0.191,1.055 -0.574,1.428 -0.383,0.373 -0.938,0.56 -1.666,0.56 -0.821,0 -1.475,-0.22 -1.96,-0.658 A 2.118,2.118 0 0 1 36.816,80.54 V 80.008 A 0.324,0.324 0 0 0 36.718,79.77 0.324,0.324 0 0 0 36.48,79.672 h -3.22 a 0.324,0.324 0 0 0 -0.238,0.098 0.324,0.324 0 0 0 -0.098,0.238 v 0.728 c 0,1.083 0.266,2.04 0.798,2.87 0.532,0.83 1.283,1.475 2.254,1.932 0.97,0.457 2.1,0.686 3.388,0.686 z m 14.756,0 c 1.27,0 2.39,-0.247 3.36,-0.742 a 5.362,5.362 0 0 0 2.254,-2.114 c 0.532,-0.915 0.798,-1.97 0.798,-3.164 V 80.12 a 0.324,0.324 0 0 0 -0.098,-0.238 0.324,0.324 0 0 0 -0.238,-0.098 l -3.276,-0.14 c -0.224,0 -0.336,0.103 -0.336,0.308 v 0.364 c 0,0.765 -0.224,1.377 -0.672,1.834 -0.448,0.457 -1.045,0.686 -1.792,0.686 -0.747,0 -1.344,-0.229 -1.792,-0.686 -0.448,-0.457 -0.672,-1.069 -0.672,-1.834 v -8.204 c 0,-0.765 0.224,-1.381 0.672,-1.848 0.448,-0.467 1.045,-0.7 1.792,-0.7 0.747,0 1.344,0.233 1.792,0.7 0.448,0.467 0.672,1.083 0.672,1.848 v 0.364 c 0,0.205 0.112,0.308 0.336,0.308 l 3.276,-0.14 a 0.305,0.305 0 0 0 0.238,-0.112 0.373,0.373 0 0 0 0.098,-0.252 v -0.14 c 0,-1.195 -0.266,-2.24 -0.798,-3.136 -0.532,-0.896 -1.283,-1.591 -2.254,-2.086 -0.97,-0.495 -2.09,-0.742 -3.36,-0.742 -1.27,0 -2.39,0.252 -3.36,0.756 a 5.426,5.426 0 0 0 -2.254,2.142 c -0.532,0.924 -0.798,1.993 -0.798,3.206 v 7.784 c 0,1.232 0.266,2.315 0.798,3.248 a 5.401,5.401 0 0 0 2.254,2.156 c 0.97,0.504 2.09,0.756 3.36,0.756 z M 66.664,86 A 0.324,0.324 0 0 0 66.902,85.902 0.324,0.324 0 0 0 67,85.664 V 66.736 A 0.324,0.324 0 0 0 66.902,66.498 0.324,0.324 0 0 0 66.664,66.4 h -3.276 a 0.324,0.324 0 0 0 -0.238,0.098 0.324,0.324 0 0 0 -0.098,0.238 v 18.928 c 0,0.093 0.033,0.173 0.098,0.238 A 0.324,0.324 0 0 0 63.388,86 Z m 9.156,0.224 c 1.904,0 3.43,-0.5 4.578,-1.498 1.148,-0.999 1.722,-2.347 1.722,-4.046 0,-0.952 -0.205,-1.764 -0.616,-2.436 a 5.687,5.687 0 0 0 -1.526,-1.666 c -0.607,-0.439 -1.451,-0.957 -2.534,-1.554 l -0.588,-0.336 c -0.952,-0.467 -1.661,-0.845 -2.128,-1.134 -0.467,-0.29 -0.812,-0.593 -1.036,-0.91 a 1.892,1.892 0 0 1 -0.336,-1.12 c 0,-0.616 0.191,-1.097 0.574,-1.442 0.383,-0.345 0.91,-0.518 1.582,-0.518 0.803,0 1.437,0.224 1.904,0.672 0.467,0.448 0.7,1.008 0.7,1.68 v 0.504 c 0,0.093 0.033,0.173 0.098,0.238 a 0.324,0.324 0 0 0 0.238,0.098 h 3.22 a 0.324,0.324 0 0 0 0.238,-0.098 0.324,0.324 0 0 0 0.098,-0.238 v -0.56 c 0,-1.12 -0.27,-2.11 -0.812,-2.968 -0.541,-0.859 -1.297,-1.526 -2.268,-2.002 -0.97,-0.476 -2.081,-0.714 -3.332,-0.714 -1.195,0 -2.259,0.22 -3.192,0.658 -0.933,0.439 -1.657,1.064 -2.17,1.876 -0.513,0.812 -0.77,1.76 -0.77,2.842 0,1.083 0.252,2.007 0.756,2.772 a 6.714,6.714 0 0 0 1.82,1.876 c 0.71,0.485 1.624,1.008 2.744,1.568 0.915,0.467 1.591,0.835 2.03,1.106 0.439,0.27 0.78,0.56 1.022,0.868 0.243,0.308 0.364,0.677 0.364,1.106 0,0.579 -0.191,1.055 -0.574,1.428 -0.383,0.373 -0.938,0.56 -1.666,0.56 -0.821,0 -1.475,-0.22 -1.96,-0.658 A 2.118,2.118 0 0 1 73.272,80.54 V 80.008 A 0.324,0.324 0 0 0 73.174,79.77 0.324,0.324 0 0 0 72.936,79.672 h -3.22 a 0.324,0.324 0 0 0 -0.238,0.098 0.324,0.324 0 0 0 -0.098,0.238 v 0.728 c 0,1.083 0.266,2.04 0.798,2.87 0.532,0.83 1.283,1.475 2.254,1.932 0.97,0.457 2.1,0.686 3.388,0.686 z m 14.56,0 c 1.904,0 3.43,-0.5 4.578,-1.498 1.148,-0.999 1.722,-2.347 1.722,-4.046 0,-0.952 -0.205,-1.764 -0.616,-2.436 a 5.687,5.687 0 0 0 -1.526,-1.666 c -0.607,-0.439 -1.451,-0.957 -2.534,-1.554 l -0.588,-0.336 c -0.952,-0.467 -1.661,-0.845 -2.128,-1.134 -0.467,-0.29 -0.812,-0.593 -1.036,-0.91 a 1.892,1.892 0 0 1 -0.336,-1.12 c 0,-0.616 0.191,-1.097 0.574,-1.442 0.383,-0.345 0.91,-0.518 1.582,-0.518 0.803,0 1.437,0.224 1.904,0.672 0.467,0.448 0.7,1.008 0.7,1.68 v 0.504 c 0,0.093 0.033,0.173 0.098,0.238 a 0.324,0.324 0 0 0 0.238,0.098 h 3.22 a 0.324,0.324 0 0 0 0.238,-0.098 0.324,0.324 0 0 0 0.098,-0.238 v -0.56 c 0,-1.12 -0.27,-2.11 -0.812,-2.968 -0.541,-0.859 -1.297,-1.526 -2.268,-2.002 -0.97,-0.476 -2.081,-0.714 -3.332,-0.714 -1.195,0 -2.259,0.22 -3.192,0.658 -0.933,0.439 -1.657,1.064 -2.17,1.876 -0.513,0.812 -0.77,1.76 -0.77,2.842 0,1.083 0.252,2.007 0.756,2.772 A 6.714,6.714 0 0 0 86.6,76.2 c 0.71,0.485 1.624,1.008 2.744,1.568 0.915,0.467 1.591,0.835 2.03,1.106 0.439,0.27 0.78,0.56 1.022,0.868 0.243,0.308 0.364,0.677 0.364,1.106 0,0.579 -0.191,1.055 -0.574,1.428 -0.383,0.373 -0.938,0.56 -1.666,0.56 -0.821,0 -1.475,-0.22 -1.96,-0.658 A 2.118,2.118 0 0 1 87.832,80.54 V 80.008 A 0.324,0.324 0 0 0 87.734,79.77 0.324,0.324 0 0 0 87.496,79.672 h -3.22 a 0.324,0.324 0 0 0 -0.238,0.098 0.324,0.324 0 0 0 -0.098,0.238 v 0.728 c 0,1.083 0.266,2.04 0.798,2.87 0.532,0.83 1.283,1.475 2.254,1.932 0.97,0.457 2.1,0.686 3.388,0.686 z m 14.84,0.028 c 1.288,0 2.427,-0.261 3.416,-0.784 a 5.58,5.58 0 0 0 2.296,-2.212 c 0.541,-0.952 0.812,-2.063 0.812,-3.332 v -7.448 c 0,-1.25 -0.27,-2.352 -0.812,-3.304 a 5.58,5.58 0 0 0 -2.296,-2.212 c -0.99,-0.523 -2.128,-0.784 -3.416,-0.784 -1.288,0 -2.422,0.261 -3.402,0.784 a 5.602,5.602 0 0 0 -2.282,2.212 c -0.541,0.952 -0.812,2.053 -0.812,3.304 v 7.448 c 0,1.27 0.27,2.38 0.812,3.332 a 5.602,5.602 0 0 0 2.282,2.212 c 0.98,0.523 2.114,0.784 3.402,0.784 z m 0,-3.388 c -0.765,0 -1.381,-0.257 -1.848,-0.77 -0.467,-0.513 -0.7,-1.18 -0.7,-2.002 v -7.728 c 0,-0.84 0.233,-1.517 0.7,-2.03 0.467,-0.513 1.083,-0.77 1.848,-0.77 0.784,0 1.41,0.257 1.876,0.77 0.467,0.513 0.7,1.19 0.7,2.03 v 7.728 c 0,0.821 -0.233,1.489 -0.7,2.002 -0.467,0.513 -1.092,0.77 -1.876,0.77 z M 117.988,86 a 0.324,0.324 0 0 0 0.238,-0.098 0.324,0.324 0 0 0 0.098,-0.238 V 78.02 c 0,-0.093 0.047,-0.14 0.14,-0.14 h 1.764 c 0.056,0 0.103,0.037 0.14,0.112 l 2.828,7.728 c 0.056,0.187 0.187,0.28 0.392,0.28 h 3.416 c 0.205,0 0.308,-0.084 0.308,-0.252 a 0.312,0.312 0 0 0 -0.028,-0.14 l -3.192,-8.036 c -0.037,-0.093 -0.01,-0.159 0.084,-0.196 a 4.812,4.812 0 0 0 2.212,-1.96 c 0.523,-0.877 0.784,-1.913 0.784,-3.108 0,-1.157 -0.233,-2.184 -0.7,-3.08 a 5.042,5.042 0 0 0 -1.988,-2.086 c -0.859,-0.495 -1.839,-0.742 -2.94,-0.742 h -6.832 a 0.324,0.324 0 0 0 -0.238,0.098 0.324,0.324 0 0 0 -0.098,0.238 v 18.928 c 0,0.093 0.033,0.173 0.098,0.238 A 0.324,0.324 0 0 0 114.712,86 Z M 120.9,74.856 h -2.436 c -0.093,0 -0.14,-0.047 -0.14,-0.14 v -4.788 c 0,-0.093 0.047,-0.14 0.14,-0.14 h 2.436 c 0.69,0 1.25,0.229 1.68,0.686 0.43,0.457 0.644,1.078 0.644,1.862 0,0.765 -0.215,1.377 -0.644,1.834 -0.43,0.457 -0.99,0.686 -1.68,0.686 z m 14.56,11.368 c 1.904,0 3.43,-0.5 4.578,-1.498 1.148,-0.999 1.722,-2.347 1.722,-4.046 0,-0.952 -0.205,-1.764 -0.616,-2.436 a 5.687,5.687 0 0 0 -1.526,-1.666 c -0.607,-0.439 -1.451,-0.957 -2.534,-1.554 l -0.588,-0.336 c -0.952,-0.467 -1.661,-0.845 -2.128,-1.134 -0.467,-0.29 -0.812,-0.593 -1.036,-0.91 a 1.892,1.892 0 0 1 -0.336,-1.12 c 0,-0.616 0.191,-1.097 0.574,-1.442 0.383,-0.345 0.91,-0.518 1.582,-0.518 0.803,0 1.437,0.224 1.904,0.672 0.467,0.448 0.7,1.008 0.7,1.68 v 0.504 c 0,0.093 0.033,0.173 0.098,0.238 a 0.324,0.324 0 0 0 0.238,0.098 h 3.22 a 0.324,0.324 0 0 0 0.238,-0.098 0.324,0.324 0 0 0 0.098,-0.238 v -0.56 c 0,-1.12 -0.27,-2.11 -0.812,-2.968 -0.541,-0.859 -1.297,-1.526 -2.268,-2.002 -0.97,-0.476 -2.081,-0.714 -3.332,-0.714 -1.195,0 -2.259,0.22 -3.192,0.658 -0.933,0.439 -1.657,1.064 -2.17,1.876 -0.513,0.812 -0.77,1.76 -0.77,2.842 0,1.083 0.252,2.007 0.756,2.772 a 6.714,6.714 0 0 0 1.82,1.876 c 0.71,0.485 1.624,1.008 2.744,1.568 0.915,0.467 1.591,0.835 2.03,1.106 0.439,0.27 0.78,0.56 1.022,0.868 0.243,0.308 0.364,0.677 0.364,1.106 0,0.579 -0.191,1.055 -0.574,1.428 -0.383,0.373 -0.938,0.56 -1.666,0.56 -0.821,0 -1.475,-0.22 -1.96,-0.658 a 2.118,2.118 0 0 1 -0.728,-1.638 v -0.532 a 0.324,0.324 0 0 0 -0.098,-0.238 0.324,0.324 0 0 0 -0.238,-0.098 h -3.22 a 0.324,0.324 0 0 0 -0.238,0.098 0.324,0.324 0 0 0 -0.098,0.238 v 0.728 c 0,1.083 0.266,2.04 0.798,2.87 0.532,0.83 1.283,1.475 2.254,1.932 0.97,0.457 2.1,0.686 3.388,0.686 z M 45.076,108 a 0.324,0.324 0 0 0 0.238,-0.098 0.324,0.324 0 0 0 0.098,-0.238 v -2.716 a 0.324,0.324 0 0 0 -0.098,-0.238 0.324,0.324 0 0 0 -0.238,-0.098 h -7.504 c -0.093,0 -0.14,-0.047 -0.14,-0.14 V 88.736 A 0.324,0.324 0 0 0 37.334,88.498 0.324,0.324 0 0 0 37.096,88.4 H 33.82 a 0.324,0.324 0 0 0 -0.238,0.098 0.324,0.324 0 0 0 -0.098,0.238 v 18.928 c 0,0.093 0.033,0.173 0.098,0.238 A 0.324,0.324 0 0 0 33.82,108 Z m 5.992,0 a 0.324,0.324 0 0 0 0.238,-0.098 0.324,0.324 0 0 0 0.098,-0.238 V 88.736 A 0.324,0.324 0 0 0 51.306,88.498 0.324,0.324 0 0 0 51.068,88.4 h -3.276 a 0.324,0.324 0 0 0 -0.238,0.098 0.324,0.324 0 0 0 -0.098,0.238 v 18.928 c 0,0.093 0.033,0.173 0.098,0.238 A 0.324,0.324 0 0 0 47.792,108 Z m 14.168,0 a 0.324,0.324 0 0 0 0.238,-0.098 0.324,0.324 0 0 0 0.098,-0.238 v -2.716 a 0.324,0.324 0 0 0 -0.098,-0.238 0.324,0.324 0 0 0 -0.238,-0.098 H 58.04 c -0.112,0 -0.14,-0.056 -0.084,-0.168 L 65.46,92.096 a 0.833,0.833 0 0 0 0.112,-0.42 v -2.94 A 0.324,0.324 0 0 0 65.474,88.498 0.324,0.324 0 0 0 65.236,88.4 H 53.924 a 0.324,0.324 0 0 0 -0.238,0.098 0.324,0.324 0 0 0 -0.098,0.238 v 2.716 c 0,0.093 0.033,0.173 0.098,0.238 a 0.324,0.324 0 0 0 0.238,0.098 h 7.196 c 0.112,0 0.14,0.056 0.084,0.168 L 53.7,104.304 a 0.833,0.833 0 0 0 -0.112,0.42 v 2.94 c 0,0.093 0.033,0.173 0.098,0.238 A 0.324,0.324 0 0 0 53.924,108 Z m 5.488,0 c 0.187,0 0.308,-0.093 0.364,-0.28 l 0.644,-2.744 c 0.019,-0.075 0.065,-0.112 0.14,-0.112 h 5.236 c 0.075,0 0.121,0.037 0.14,0.112 l 0.644,2.744 c 0.056,0.187 0.187,0.28 0.392,0.28 H 81.7 c 0.205,0 0.308,-0.084 0.308,-0.252 L 81.98,107.636 76.94,88.68 C 76.884,88.493 76.753,88.4 76.548,88.4 h -4.06 c -0.205,0 -0.336,0.093 -0.392,0.28 l -5.04,18.956 C 67,107.879 67.093,108 67.336,108 Z m 5.6,-6.188 h -3.696 a 0.186,0.186 0 0 1 -0.112,-0.042 c -0.037,-0.028 -0.047,-0.07 -0.028,-0.126 l 1.876,-8.12 c 0.019,-0.075 0.047,-0.112 0.084,-0.112 0.037,0 0.065,0.037 0.084,0.112 l 1.932,8.12 c 0.019,0.056 0.01,0.098 -0.028,0.126 a 0.186,0.186 0 0 1 -0.112,0.042 z M 87.692,108 a 0.324,0.324 0 0 0 0.238,-0.098 0.324,0.324 0 0 0 0.098,-0.238 v -7.644 c 0,-0.093 0.047,-0.14 0.14,-0.14 h 1.764 c 0.056,0 0.103,0.037 0.14,0.112 l 2.828,7.728 c 0.056,0.187 0.187,0.28 0.392,0.28 h 3.416 c 0.205,0 0.308,-0.084 0.308,-0.252 a 0.312,0.312 0 0 0 -0.028,-0.14 l -3.192,-8.036 c -0.037,-0.093 -0.01,-0.159 0.084,-0.196 a 4.812,4.812 0 0 0 2.212,-1.96 c 0.523,-0.877 0.784,-1.913 0.784,-3.108 0,-1.157 -0.233,-2.184 -0.7,-3.08 A 5.042,5.042 0 0 0 94.188,89.142 C 93.329,88.647 92.349,88.4 91.248,88.4 h -6.832 a 0.324,0.324 0 0 0 -0.238,0.098 0.324,0.324 0 0 0 -0.098,0.238 v 18.928 c 0,0.093 0.033,0.173 0.098,0.238 A 0.324,0.324 0 0 0 84.416,108 Z m 2.912,-11.144 h -2.436 c -0.093,0 -0.14,-0.047 -0.14,-0.14 v -4.788 c 0,-0.093 0.047,-0.14 0.14,-0.14 h 2.436 c 0.69,0 1.25,0.229 1.68,0.686 0.43,0.457 0.644,1.078 0.644,1.862 0,0.765 -0.215,1.377 -0.644,1.834 -0.43,0.457 -0.99,0.686 -1.68,0.686 z M 105.64,108 c 1.25,0 2.357,-0.233 3.318,-0.7 0.961,-0.467 1.703,-1.13 2.226,-1.988 0.523,-0.859 0.784,-1.857 0.784,-2.996 v -8.232 c 0,-1.139 -0.261,-2.137 -0.784,-2.996 -0.523,-0.859 -1.265,-1.521 -2.226,-1.988 -0.961,-0.467 -2.067,-0.7 -3.318,-0.7 h -6.02 a 0.324,0.324 0 0 0 -0.238,0.098 0.324,0.324 0 0 0 -0.098,0.238 v 18.928 c 0,0.093 0.033,0.173 0.098,0.238 A 0.324,0.324 0 0 0 99.62,108 Z m -2.268,-3.388 c -0.093,0 -0.14,-0.047 -0.14,-0.14 V 91.928 c 0,-0.093 0.047,-0.14 0.14,-0.14 h 2.296 c 0.71,0 1.279,0.247 1.708,0.742 0.43,0.495 0.644,1.162 0.644,2.002 v 7.336 c -0.019,0.821 -0.243,1.48 -0.672,1.974 -0.43,0.495 -0.99,0.742 -1.68,0.742 z m -64.008,25.612 c 1.904,0 3.43,-0.5 4.578,-1.498 1.148,-0.999 1.722,-2.347 1.722,-4.046 0,-0.952 -0.205,-1.764 -0.616,-2.436 a 5.687,5.687 0 0 0 -1.526,-1.666 c -0.607,-0.439 -1.451,-0.957 -2.534,-1.554 L 40.4,118.688 c -0.952,-0.467 -1.661,-0.845 -2.128,-1.134 -0.467,-0.29 -0.812,-0.593 -1.036,-0.91 a 1.892,1.892 0 0 1 -0.336,-1.12 c 0,-0.616 0.191,-1.097 0.574,-1.442 0.383,-0.345 0.91,-0.518 1.582,-0.518 0.803,0 1.437,0.224 1.904,0.672 0.467,0.448 0.7,1.008 0.7,1.68 v 0.504 c 0,0.093 0.033,0.173 0.098,0.238 a 0.324,0.324 0 0 0 0.238,0.098 h 3.22 a 0.324,0.324 0 0 0 0.238,-0.098 0.324,0.324 0 0 0 0.098,-0.238 v -0.56 c 0,-1.12 -0.27,-2.11 -0.812,-2.968 -0.541,-0.859 -1.297,-1.526 -2.268,-2.002 -0.97,-0.476 -2.081,-0.714 -3.332,-0.714 -1.195,0 -2.259,0.22 -3.192,0.658 -0.933,0.439 -1.657,1.064 -2.17,1.876 -0.513,0.812 -0.77,1.76 -0.77,2.842 0,1.083 0.252,2.007 0.756,2.772 a 6.714,6.714 0 0 0 1.82,1.876 c 0.71,0.485 1.624,1.008 2.744,1.568 0.915,0.467 1.591,0.835 2.03,1.106 0.439,0.27 0.78,0.56 1.022,0.868 0.243,0.308 0.364,0.677 0.364,1.106 0,0.579 -0.191,1.055 -0.574,1.428 -0.383,0.373 -0.938,0.56 -1.666,0.56 -0.821,0 -1.475,-0.22 -1.96,-0.658 a 2.118,2.118 0 0 1 -0.728,-1.638 v -0.532 a 0.324,0.324 0 0 0 -0.098,-0.238 0.324,0.324 0 0 0 -0.238,-0.098 h -3.22 a 0.324,0.324 0 0 0 -0.238,0.098 0.324,0.324 0 0 0 -0.098,0.238 v 0.728 c 0,1.083 0.266,2.04 0.798,2.87 0.532,0.83 1.283,1.475 2.254,1.932 0.97,0.457 2.1,0.686 3.388,0.686 z M 51.572,130 a 0.324,0.324 0 0 0 0.238,-0.098 0.324,0.324 0 0 0 0.098,-0.238 v -7.28 c 0,-0.093 0.047,-0.14 0.14,-0.14 h 3.024 c 1.12,0 2.114,-0.243 2.982,-0.728 a 5.038,5.038 0 0 0 2.016,-2.058 c 0.476,-0.887 0.714,-1.909 0.714,-3.066 0,-1.176 -0.238,-2.221 -0.714,-3.136 a 5.158,5.158 0 0 0 -2.016,-2.128 c -0.868,-0.504 -1.862,-0.756 -2.982,-0.756 h -6.776 a 0.324,0.324 0 0 0 -0.238,0.098 0.324,0.324 0 0 0 -0.098,0.238 v 18.956 c 0,0.093 0.033,0.173 0.098,0.238 A 0.324,0.324 0 0 0 48.296,130 Z m 2.856,-10.892 h -2.38 c -0.093,0 -0.14,-0.047 -0.14,-0.14 v -5.04 c 0,-0.093 0.047,-0.14 0.14,-0.14 h 2.38 c 0.728,0 1.311,0.243 1.75,0.728 0.439,0.485 0.658,1.139 0.658,1.96 0,0.803 -0.22,1.442 -0.658,1.918 -0.439,0.476 -1.022,0.714 -1.75,0.714 z m 14.644,11.144 c 1.288,0 2.427,-0.261 3.416,-0.784 a 5.58,5.58 0 0 0 2.296,-2.212 c 0.541,-0.952 0.812,-2.063 0.812,-3.332 v -7.448 c 0,-1.25 -0.27,-2.352 -0.812,-3.304 a 5.58,5.58 0 0 0 -2.296,-2.212 c -0.99,-0.523 -2.128,-0.784 -3.416,-0.784 -1.288,0 -2.422,0.261 -3.402,0.784 a 5.602,5.602 0 0 0 -2.282,2.212 c -0.541,0.952 -0.812,2.053 -0.812,3.304 v 7.448 c 0,1.27 0.27,2.38 0.812,3.332 a 5.602,5.602 0 0 0 2.282,2.212 c 0.98,0.523 2.114,0.784 3.402,0.784 z m 0,-3.388 c -0.765,0 -1.381,-0.257 -1.848,-0.77 -0.467,-0.513 -0.7,-1.18 -0.7,-2.002 v -7.728 c 0,-0.84 0.233,-1.517 0.7,-2.03 0.467,-0.513 1.083,-0.77 1.848,-0.77 0.784,0 1.41,0.257 1.876,0.77 0.467,0.513 0.7,1.19 0.7,2.03 v 7.728 c 0,0.821 -0.233,1.489 -0.7,2.002 -0.467,0.513 -1.092,0.77 -1.876,0.77 z m 15.232,3.36 c 1.27,0 2.39,-0.247 3.36,-0.742 a 5.362,5.362 0 0 0 2.254,-2.114 c 0.532,-0.915 0.798,-1.97 0.798,-3.164 v -0.084 a 0.324,0.324 0 0 0 -0.098,-0.238 0.324,0.324 0 0 0 -0.238,-0.098 l -3.276,-0.14 c -0.224,0 -0.336,0.103 -0.336,0.308 v 0.364 c 0,0.765 -0.224,1.377 -0.672,1.834 -0.448,0.457 -1.045,0.686 -1.792,0.686 -0.747,0 -1.344,-0.229 -1.792,-0.686 -0.448,-0.457 -0.672,-1.069 -0.672,-1.834 v -8.204 c 0,-0.765 0.224,-1.381 0.672,-1.848 0.448,-0.467 1.045,-0.7 1.792,-0.7 0.747,0 1.344,0.233 1.792,0.7 0.448,0.467 0.672,1.083 0.672,1.848 v 0.364 c 0,0.205 0.112,0.308 0.336,0.308 l 3.276,-0.14 a 0.305,0.305 0 0 0 0.238,-0.112 0.373,0.373 0 0 0 0.098,-0.252 v -0.14 c 0,-1.195 -0.266,-2.24 -0.798,-3.136 -0.532,-0.896 -1.283,-1.591 -2.254,-2.086 -0.97,-0.495 -2.09,-0.742 -3.36,-0.742 -1.27,0 -2.39,0.252 -3.36,0.756 a 5.426,5.426 0 0 0 -2.254,2.142 c -0.532,0.924 -0.798,1.993 -0.798,3.206 v 7.784 c 0,1.232 0.266,2.315 0.798,3.248 a 5.401,5.401 0 0 0 2.254,2.156 c 0.97,0.504 2.09,0.756 3.36,0.756 z M 96.848,130 a 0.324,0.324 0 0 0 0.238,-0.098 0.324,0.324 0 0 0 0.098,-0.238 v -5.6 a 0.43,0.43 0 0 1 0.056,-0.168 l 1.26,-1.82 c 0.037,-0.056 0.075,-0.084 0.112,-0.084 0.037,0 0.065,0.028 0.084,0.084 l 3.976,7.672 c 0.093,0.168 0.224,0.252 0.392,0.252 h 3.584 c 0.205,0 0.308,-0.075 0.308,-0.224 a 0.43,0.43 0 0 0 -0.056,-0.168 l -5.488,-10.584 a 0.348,0.348 0 0 1 0,-0.196 l 5.18,-8.036 c 0.075,-0.112 0.089,-0.205 0.042,-0.28 -0.047,-0.075 -0.135,-0.112 -0.266,-0.112 h -3.612 a 0.439,0.439 0 0 0 -0.392,0.224 l -5.012,7.616 c -0.019,0.056 -0.051,0.075 -0.098,0.056 -0.047,-0.019 -0.07,-0.056 -0.07,-0.112 v -7.448 a 0.324,0.324 0 0 0 -0.098,-0.238 0.324,0.324 0 0 0 -0.238,-0.098 h -3.276 a 0.324,0.324 0 0 0 -0.238,0.098 0.324,0.324 0 0 0 -0.098,0.238 v 18.928 c 0,0.093 0.033,0.173 0.098,0.238 A 0.324,0.324 0 0 0 93.572,130 Z" />
  </defs>
  <g
     fill="none"
     transform="translate(-32,-22)"
     id="g2">
    <use
       fill="#000000"
       filter="url(#a)"
       xlink:href="#b"
       id="use1" />
    <use
       fill="#ffffff"
       xlink:href="#b"
       id="use2" />
  </g>
</svg>
