<?xml version="1.0" encoding="UTF-8" standalone="no"?>
<!-- Created with Inkscape (http://www.inkscape.org/) -->

<svg
   width="512"
   height="512"
   viewBox="0 0 512 512"
   version="1.1"
   id="svg1"
   xml:space="preserve"
   inkscape:version="1.3.1 (91b66b0783, 2023-11-16)"
   sodipodi:docname="RPSIcon.svg"
   xmlns:inkscape="http://www.inkscape.org/namespaces/inkscape"
   xmlns:sodipodi="http://sodipodi.sourceforge.net/DTD/sodipodi-0.dtd"
   xmlns:xlink="http://www.w3.org/1999/xlink"
   xmlns="http://www.w3.org/2000/svg"
   xmlns:svg="http://www.w3.org/2000/svg"><sodipodi:namedview
     id="namedview1"
     pagecolor="#505050"
     bordercolor="#eeeeee"
     borderopacity="1"
     inkscape:showpageshadow="0"
     inkscape:pageopacity="0"
     inkscape:pagecheckerboard="0"
     inkscape:deskcolor="#505050"
     inkscape:document-units="px"
     inkscape:zoom="1.1338568"
     inkscape:cx="236.8024"
     inkscape:cy="232.39267"
     inkscape:window-width="1920"
     inkscape:window-height="1017"
     inkscape:window-x="-8"
     inkscape:window-y="-8"
     inkscape:window-maximized="1"
     inkscape:current-layer="layer1" /><defs
     id="defs1"><linearGradient
       id="linearGradient3"
       inkscape:collect="always"><stop
         style="stop-color:#203855;stop-opacity:1;"
         offset="0.56592292"
         id="stop3" /><stop
         style="stop-color:#131539;stop-opacity:1;"
         offset="1"
         id="stop4" /></linearGradient><radialGradient
       inkscape:collect="always"
       xlink:href="#linearGradient3"
       id="radialGradient4"
       cx="354.29214"
       cy="5.6843419e-14"
       fx="354.29214"
       fy="5.6843419e-14"
       r="256"
       gradientUnits="userSpaceOnUse"
       gradientTransform="matrix(0,1.1626018,-1,0,256,-304.71372)" /></defs><g
     inkscape:label="Layer 1"
     inkscape:groupmode="layer"
     id="layer1"><rect
       style="fill:url(#radialGradient4);stroke-width:7.55906;fill-opacity:1"
       id="rect2"
       width="512"
       height="512"
       x="0"
       y="0" /><path
       style="fill:#eca218;fill-opacity:1;stroke-width:7.55906"
       id="path2"
       sodipodi:type="arc"
       sodipodi:cx="256"
       sodipodi:cy="256"
       sodipodi:rx="148.81303"
       sodipodi:ry="148.81303"
       sodipodi:start="0"
       sodipodi:end="6.2831226"
       sodipodi:open="true"
       sodipodi:arc-type="chord" /><path
       style="fill:#e3e3e3;fill-opacity:1;stroke-width:7.55906"
       id="path3"
       sodipodi:type="arc"
       sodipodi:cx="256"
       sodipodi:cy="256"
       sodipodi:rx="105.22671"
       sodipodi:ry="105.22671"
       sodipodi:start="0"
       sodipodi:end="6.2831226"
       sodipodi:open="true"
       sodipodi:arc-type="chord" /><path
       fill="#3b4262"
       d="m 235.15403,250.59718 10.77396,-15.08031 c -4.4784,-0.74371 -12.70224,-0.90859 -19.43686,5.79736 -10.61804,10.57146 -14.91902,33.40607 -15.81505,38.93462 l 26.98506,26.86679 c 4.85831,-0.41576 26.3668,-3.27412 47.09394,-23.90628 0.21863,-0.44622 5.2687,-4.1594 1.13976,-8.26863 -1.97128,-1.96233 -5.23107,-1.92469 -7.24357,0.0788 -1.02507,1.02148 -2.61822,1.03403 -3.62178,0.0358 -1.00357,-0.99819 -0.98922,-2.58597 0.0358,-3.60566 l 7.32421,-7.29195 c 3.72035,-3.70422 0.21326,-9.95498 -4.98196,-8.45322 l -5.9945,5.1092 c -1.09496,0.94981 -2.72395,0.78673 -3.62358,-0.25088 -0.93008,-1.06988 -0.73116,-2.6935 0.32796,-3.60745 20.94398,-18.29351 17.88491,-16.09105 31.36132,-28.66424 5.03393,-4.17375 -1.29926,-11.55351 -6.25973,-7.32959 l -32.59785,29.18394 c -0.948,0.80285 -2.40137,0.81898 -3.33325,-0.0358 -1.07704,-0.9265 -1.10213,-2.2616 -0.39784,-3.31534 l 22.73606,-35.18919 c 3.3225,-4.48018 -3.21678,-9.45678 -6.71849,-4.94075 l -33.61576,46.809 c -0.81001,1.16485 -2.44438,1.43366 -3.55726,0.61827 a 2.4676874,2.4676874 0 0 1 -0.57884,-3.49454 z"
       id="path1"
       style="stroke-width:1.79208" /></g></svg>
